<svg width="269" height="75" viewBox="0 0 269 75" fill="none" xmlns="http://www.w3.org/2000/svg">
<path fill-rule="evenodd" clip-rule="evenodd" d="M242.129 1.0767C242.102 1.08122 242.074 1.08647 242.047 1.09257C242.016 1.09892 241.986 1.10673 241.956 1.11564L241.979 1.06657C242.146 0.764445 242.073 0.46757 241.89 0.295695C241.703 0.066569 241.401 0.0144449 241.047 0.0925699C240.693 0.165568 240.463 0.410319 240.291 0.71757C240.224 0.867106 240.155 1.01969 240.084 1.17521C239.91 1.55876 239.727 1.96061 239.534 2.38102C239.496 2.42021 239.461 2.4622 239.428 2.50663C239.378 2.57218 239.333 2.64311 239.291 2.71757L239.129 3.0767C239.102 3.08122 239.074 3.08647 239.047 3.09257L239.017 3.09916L239.005 3.10209C238.988 3.10624 238.972 3.11076 238.956 3.11564L238.979 3.06657C239.146 2.76444 239.073 2.46757 238.89 2.29569C238.703 2.06657 238.401 2.01444 238.047 2.09257C237.693 2.16557 237.463 2.41032 237.291 2.71757C235.37 6.96757 232.229 13.6603 227.875 22.8426C223.928 31.2188 219.881 39.6477 215.785 48.1779L215.783 48.1816L214.693 50.4519C210.219 59.7019 206.786 66.5769 204.281 71.0926C203.958 71.6731 203.905 72.0835 204.167 72.3147C203.95 72.779 203.94 73.1142 204.167 73.3147C203.938 73.8055 203.94 74.1521 204.208 74.3478C204.515 74.5144 204.875 74.6238 205.291 74.6031C205.312 74.6023 205.332 74.6009 205.352 74.5988C205.369 74.597 205.387 74.5945 205.404 74.5916C205.481 74.5789 205.556 74.5563 205.63 74.5242C205.832 74.5841 206.053 74.6149 206.291 74.6031C206.708 74.5874 207.114 74.2749 207.39 73.7281L207.463 73.5798C207.818 73.4966 208.153 73.1994 208.39 72.7281L208.463 72.5798C208.52 72.5666 208.575 72.548 208.63 72.5242C208.662 72.5335 208.693 72.5422 208.726 72.55C208.776 72.5621 208.827 72.5724 208.879 72.5809C209.01 72.6018 209.147 72.6103 209.291 72.6031C209.708 72.5874 210.114 72.2749 210.39 71.7281L210.463 71.5798C210.818 71.4966 211.153 71.1994 211.39 70.7281C213.547 66.3426 216.802 59.5353 221.219 50.2906L221.232 50.2624L221.245 50.2342C225.648 41.0081 230.05 31.7821 234.396 22.5562C238.75 13.3166 241.943 6.50407 243.979 2.06657C244.146 1.76444 244.073 1.46757 243.89 1.29569L243.88 1.28288L243.979 1.06657C244.146 0.764445 244.073 0.46757 243.89 0.295695C243.703 0.066569 243.401 0.0144449 243.047 0.0925699C242.693 0.165568 242.463 0.410319 242.291 0.71757L242.129 1.0767ZM63.0256 24.0108C60.8339 23.866 58.3266 24.2172 55.5027 25.0653C49.6069 27.0288 44.8934 32.1382 41.3569 40.1956C39.1954 45.8935 39.3934 50.805 42.1434 54.93C44.8934 59.055 49.8048 61.0185 56.8777 61.0185C57.2545 61.0185 57.6302 61.0151 58.0049 61.0082C58.1544 61.0118 58.3049 61.0144 58.4564 61.0162C58.596 61.0177 58.7364 61.0185 58.8777 61.0185C67.9142 61.0185 76.3621 59.055 84.0288 55.1226C88.7176 52.7193 93.4806 49.9471 98.2712 46.8063C98.1494 47.273 98.0254 47.7397 97.8984 48.2063C97.8413 48.4163 97.7836 48.6263 97.7252 48.8362C96.7408 52.3726 96.3502 55.1226 96.1522 57.2841C95.9595 59.8413 96.7408 61.2163 98.5116 61.805C99.1319 62.037 99.8437 62.0553 100.635 61.8479C102.197 62.3517 104.312 61.5461 106.798 59.2528C112.694 53.555 118.585 48.2476 124.48 43.3362C129.661 39.0505 134.192 36.711 137.923 36.3216C139.196 36.4967 140.072 37.0667 140.553 38.0341C141.147 39.4091 141.34 41.7632 141.34 45.2997C141.147 47.4612 141.34 49.8206 141.736 52.18C142.126 54.732 143.111 56.6956 144.876 58.4663C146.647 60.232 149.397 61.0185 153.522 61.0185C153.833 61.0185 154.144 61.0121 154.456 60.9997C154.8 61.0122 155.156 61.0185 155.522 61.0185C161.022 61.0185 166.72 59.055 172.814 55.3206C178.902 51.5862 184.6 47.6591 189.902 43.5341C190.2 43.3217 190.488 43.1095 190.771 42.8976C190.964 42.9895 191.156 43.0809 191.346 43.1715C193.913 44.3916 196.279 45.5168 197.515 47.0257C197.924 45.1181 199.513 43.0343 201.236 40.7747C204.081 37.0428 207.293 32.831 206.156 28.1404C204.317 20.5509 195.185 24.5462 193.672 31.1661C189.302 25.9795 179.347 26.5946 181.188 34.1914C181.576 35.793 182.39 37.1128 183.461 38.2369C179.097 41.6253 174.547 44.8376 169.631 48.0497C164.782 51.1081 160.586 52.8462 156.749 53.1206C154.741 52.9474 153.458 52.1961 152.772 50.9976C151.788 49.6226 151.397 46.8726 151.397 43.1382C151.587 41.0662 151.413 38.9991 151.224 36.7531L151.199 36.4612C150.808 34.2997 149.824 32.3362 148.449 30.7632C147.074 29.1903 144.522 28.4038 141.178 28.4038C140.854 28.4038 140.527 28.4124 140.198 28.4295C139.867 28.4124 139.527 28.4038 139.178 28.4038C134.267 28.4038 128.767 30.3675 123.069 34.2997C118.228 37.8044 113.248 41.7338 108.243 46.331C109.005 43.4434 109.769 40.5802 110.532 37.8362C110.8 36.8536 111.068 35.9516 111.317 35.1125L111.32 35.1007L111.321 35.0975C111.618 34.0972 111.888 33.1868 112.1 32.3362C112.496 30.5653 112.1 29.3882 111.121 28.7997C110.236 28.3572 109.236 28.2475 108.21 28.4703C107.259 28.2475 106.222 28.3572 105.189 28.7997C103.814 29.3882 102.835 30.5653 102.246 32.3362C102.117 32.7198 101.988 33.1126 101.86 33.5148C101.745 33.8752 101.63 34.2431 101.515 34.6184C94.3 40.0638 87.2819 44.5378 80.6486 47.857C74.1185 51.216 67.41 52.9775 60.188 53.1458C55.945 53.0101 53.0831 51.837 51.6069 49.6226C49.8413 47.2685 49.6434 44.5132 51.0184 41.1747C52.0027 38.4247 53.3777 36.2632 55.1434 34.8882C56.9142 33.5132 58.4871 32.5288 60.0548 32.1382C60.1268 32.1204 60.1981 32.1033 60.2684 32.0871C60.5114 32.0309 60.7443 31.9845 60.9664 31.948C61.134 31.9952 61.2786 32.0586 61.3986 32.1382C61.9871 32.5288 61.9871 33.3153 61.2007 34.2997C59.8257 35.6747 59.4298 37.0497 59.8257 38.2268C60.2163 39.4091 61.0027 40.1956 62.3777 40.3882C62.8819 40.4609 63.386 40.4277 63.8902 40.2887C63.9668 40.3097 64.0456 40.3285 64.1266 40.3451C64.2081 40.3617 64.2917 40.3761 64.3777 40.3882C65.7527 40.5862 67.1277 39.9976 68.5027 38.6226C73.2215 33.1226 74.0079 28.9925 71.0601 26.2425C68.9811 24.5559 66.304 23.811 63.0256 24.0108ZM244.965 25.3438C244.575 25.047 244.14 24.9732 243.711 25.1225C243.383 25.0043 243.037 25.0259 242.699 25.1875C242.215 25.4219 241.871 25.7137 241.611 26.2188C241.372 26.608 241.365 26.9887 241.582 27.4103C241.362 27.5909 241.181 27.8132 241.029 28.1083C240.763 28.5407 240.784 28.9626 241.081 29.4417C241.223 29.6324 241.548 29.8184 242.061 30.1119L242.164 30.1708C242.328 30.2356 242.515 30.3089 242.726 30.3915L242.744 30.3985L242.878 30.4508C242.794 30.7681 242.863 31.0894 243.081 31.4417C243.223 31.6324 243.548 31.8184 244.061 32.1119L244.164 32.1708C244.81 32.4261 245.81 32.8114 247.237 33.3896C248.669 33.9677 250.737 34.7282 253.378 35.6813C253.839 35.8523 254.292 36.0214 254.74 36.1884C249.27 38.3802 243.914 40.6275 238.611 43.0053C237.991 43.3803 237.59 43.8178 237.465 44.3178C237.375 44.6882 237.399 44.9768 237.542 45.2406C237.198 45.5317 236.971 45.8538 236.883 46.2073C236.763 46.7021 236.847 47.0511 237.143 47.3896C237.508 47.7282 237.93 47.7126 238.55 47.4782C238.856 47.3417 239.162 47.2056 239.467 47.07C239.487 47.1283 239.512 47.1851 239.542 47.2406C239.198 47.5317 238.971 47.8538 238.883 48.2073C238.763 48.7021 238.847 49.0511 239.143 49.3896C239.508 49.7282 239.93 49.7126 240.55 49.4782C241.047 49.2563 241.545 49.0354 242.042 48.8157C242.08 49.0238 242.178 49.2083 242.337 49.3896C242.701 49.7282 243.123 49.7126 243.743 49.4782C251.696 45.9313 259.587 42.6657 267.42 39.7594C268.113 39.5198 268.519 39.0094 268.701 38.3688L268.72 38.2868C268.775 38.0451 268.819 37.8532 268.748 37.6657C268.74 37.4987 268.641 37.2882 268.417 37.1094C268.487 37.0043 268.547 36.892 268.597 36.7737C268.638 36.6792 268.672 36.581 268.701 36.4793C268.764 36.198 268.826 35.9844 268.748 35.7762C268.738 35.5678 268.587 35.2918 268.227 35.0938C267.946 34.9029 267.471 34.649 266.731 34.346C266.781 34.1281 266.813 33.9502 266.748 33.7762C266.738 33.5678 266.587 33.2918 266.227 33.0938C265.936 32.8959 265.436 32.6303 264.649 32.3125C263.863 31.9897 262.79 31.5418 261.436 31.0313C260.076 30.5209 258.363 29.8855 256.149 29.0574L254.295 28.4272C252.514 27.7918 250.946 27.2188 249.446 26.6459C247.946 26.073 247.081 25.6147 246.722 25.3438C246.285 25.0105 245.79 24.9584 245.311 25.1875C245.197 25.2426 245.091 25.3007 244.992 25.3641L244.965 25.3438ZM24.9843 54.3604C25.3869 54.6381 25.8265 54.6855 26.2484 54.5099C26.5825 54.6094 26.9283 54.5656 27.2587 54.3821C27.7274 54.1216 28.0504 53.8091 28.2795 53.2935C28.4952 52.8903 28.4829 52.5083 28.2352 52.1017C28.4452 51.9084 28.6122 51.6755 28.7469 51.3725C28.9865 50.9246 28.9448 50.5027 28.6115 50.0444C28.4636 49.857 28.1196 49.6883 27.5795 49.4234L27.4865 49.3777C27.3912 49.346 27.2883 49.3121 27.1774 49.2757C27.0496 49.2338 26.9114 49.1888 26.7623 49.1403C26.8267 48.8194 26.739 48.5035 26.4951 48.168C26.3471 47.9806 26.0031 47.8119 25.4631 47.547L25.3701 47.5014C24.7138 47.2826 23.6929 46.9598 22.2346 46.4701C20.7711 45.9805 18.6617 45.3451 15.969 44.5535C15.4968 44.4092 15.0317 44.2666 14.5732 44.1258C19.9017 41.6115 25.1122 39.0474 30.2639 36.356C30.8629 35.9394 31.2379 35.481 31.3316 34.9759C31.3979 34.6009 31.356 34.3138 31.1991 34.0574C31.5261 33.7454 31.7328 33.4118 31.799 33.0549C31.8875 32.5549 31.7834 32.2111 31.4709 31.8881C31.0854 31.5756 30.6636 31.6174 30.0542 31.8881C29.7584 32.042 29.4626 32.1955 29.1669 32.3486C29.1439 32.2911 29.1158 32.2354 29.0826 32.1812C29.4096 31.8692 29.6163 31.5354 29.6826 31.1785C29.7711 30.6785 29.6669 30.3348 29.3544 30.0118C28.969 29.6993 28.5471 29.741 27.9377 30.0118C27.4557 30.2625 26.9738 30.5122 26.4921 30.7608C26.4688 30.6657 26.4332 30.5762 26.3852 30.4904C26.3294 30.3909 26.2568 30.2963 26.1669 30.2034C25.7815 29.8909 25.3596 29.9327 24.7502 30.2034C17.0315 34.219 9.34918 37.9534 1.70337 41.3233C1.0263 41.6045 0.651304 42.1358 0.50543 42.7868C0.463804 43.0733 0.416929 43.292 0.50543 43.4952C0.522092 43.6615 0.631772 43.8645 0.866331 44.027C0.752378 44.2231 0.670957 44.4403 0.618833 44.673L0.605833 44.7605C0.568906 45.0049 0.539548 45.1994 0.618833 45.3814C0.639707 45.5896 0.806333 45.8553 1.18133 46.0271C1.46747 46.2029 1.96161 46.4269 2.71502 46.6853C2.68194 46.9073 2.66137 47.0878 2.73535 47.2576C2.75622 47.4659 2.92285 47.7315 3.29785 47.9034C3.59472 48.0857 4.1156 48.3201 4.91766 48.5909L5.18243 48.6822C5.95569 48.949 6.96545 49.2976 8.2041 49.6795C8.48602 49.7664 8.78283 49.8576 9.09582 49.9535L9.94385 50.2133L11.0897 50.5639L11.1254 50.5749L11.3865 50.6547C12.0629 50.8615 12.7967 51.086 13.5947 51.3305L15.4853 51.8514C17.3031 52.3721 18.902 52.8514 20.4333 53.3357C21.9645 53.8149 22.8552 54.2211 23.2302 54.4659C23.6833 54.7784 24.1833 54.7992 24.652 54.5389C24.7623 54.4776 24.8645 54.4134 24.9593 54.3444L24.9843 54.3604Z" fill="black"/>
</svg>
