<svg version="1.2" xmlns="http://www.w3.org/2000/svg" viewBox="0 0 212 66" width="212" height="66">
	<defs>
		<clipPath clipPathUnits="userSpaceOnUse" id="cp1">
			<path d="m140 22h19.93v18h-19.93z"/>
		</clipPath>
		<clipPath clipPathUnits="userSpaceOnUse" id="cp2">
			<path d=""/>
		</clipPath>
	</defs>
	<style>
		.s0 { fill: #000000 } 
	</style>
	<g id="Layer">
		<g id="Layer">
			<g id="Layer">
				<path id="Layer" class="s0" d="m84.8 29.9c-5.5 4.1-10.8 7.5-15.8 10-5.2 2.6-10.5 4-16.2 4q-5.3 0-7.1-2.7c-1.3-1.7-1.5-3.8-0.4-6.3 0.7-2.1 1.7-3.7 3.1-4.7 1.3-1.1 2.5-1.8 3.6-2.1 1.2-0.3 2.1-0.3 2.5 0 0.5 0.3 0.5 0.9-0.1 1.6-1 1.1-1.3 2.1-1 3 0.3 0.9 0.9 1.4 1.9 1.6q1.5 0.2 3.1-1.3c3.5-4.2 4.1-7.3 1.9-9.3q-3.5-2.9-10.2-0.9c-4.4 1.5-7.9 5.3-10.6 11.3-1.6 4.3-1.5 8 0.6 11.1 2.1 3.1 5.8 4.6 11.1 4.6 6.7 0 13.1-1.5 18.8-4.5 5.8-2.9 11.7-6.6 17.6-11 1.1-1 1.7-1.9 1.7-3q-0.2-1.5-1.3-2.2c-0.9-0.4-1.9-0.1-3.2 0.8z"/>
			</g>
		</g>
	</g>
	<g id="Layer">
		<g id="Layer">
			<g id="Layer">
				<path id="Layer" class="s0" d="m149.6 30c-1.1 0.8-2.1 1.6-3.1 2.4-3.4 2.6-6.9 5.1-10.8 7.6-4 2.5-7.3 3.9-10.4 3.9-2 0-3.1-0.6-3.7-1.7-0.8-1-1.1-3-1.1-5.8 0.2-1.7 0-3.3-0.1-5.1-0.3-1.6-1-3-2.1-4.2-1-1.2-2.9-1.8-5.4-1.8-3.7 0-7.8 1.5-12.1 4.4-4.3 3.1-8.7 6.7-13.1 10.9 0.7-2.8 1.5-5.6 2.2-8.2 0.4-1.6 0.9-3 1.2-4.1 0.3-1.4 0-2.3-0.8-2.7-0.8-0.4-1.9-0.4-2.9 0q-1.6 0.7-2.2 2.7-0.7 1.9-1.3 4.4c-0.8 2.6-1.4 5.3-2.1 7.9-0.7 2.7-1 4.7-1.2 6.4-0.1 1.9 0.5 2.9 1.8 3.4 1.2 0.4 2.8-0.2 4.7-2q6.6-6.4 13.3-11.9c4.2-3.5 7.9-5.3 10.9-5.3q2 0 2.6 1.3c0.5 1.1 0.6 2.8 0.6 5.5-0.1 1.6 0 3.4 0.3 5.1 0.3 1.9 1 3.4 2.4 4.7 1.3 1.4 3.3 2 6.4 2 4.2 0 8.4-1.5 13-4.3q6.9-4.2 12.8-8.8c1.1-0.8 1.9-1.5 3-2.3 1.2-1 1.7-1.9 1.7-2.9-0.1-1-0.5-1.6-1.4-2.1-0.9-0.4-1.9-0.1-3.1 0.6z"/>
			</g>
		</g>
	</g>
	<g id="Clip-Path" clip-path="url(#cp1)">
		<g id="Layer">
			<g id="Clip-Path" clip-path="url(#cp2)">
				<g id="Layer">
				</g>
			</g>
		</g>
	</g>
	<g id="Layer">
		<g id="Layer">
			<g id="Layer">
				<path id="Layer" class="s0" d="m83.3 29.9c-5.5 4.1-10.8 7.5-15.8 10-5.2 2.6-10.5 4-16.2 4q-5.3 0-7.1-2.7c-1.3-1.7-1.5-3.8-0.4-6.3 0.7-2.1 1.7-3.7 3.1-4.7 1.3-1.1 2.5-1.8 3.6-2.1 1.2-0.3 2.1-0.3 2.5 0 0.5 0.3 0.5 0.9-0.1 1.6-1 1.1-1.3 2.1-1 3 0.3 0.9 0.9 1.4 1.9 1.6q1.5 0.2 3.1-1.3c3.5-4.2 4.1-7.3 1.9-9.3q-3.5-2.9-10.2-0.9c-4.4 1.5-7.9 5.3-10.6 11.3-1.6 4.3-1.5 8 0.6 11.1 2.1 3.1 5.8 4.6 11.1 4.6 6.7 0 13.1-1.5 18.8-4.5 5.8-2.9 11.7-6.6 17.6-11 1.1-1 1.7-1.9 1.7-3q-0.2-1.5-1.3-2.2c-0.9-0.4-1.9-0.1-3.2 0.8z"/>
			</g>
		</g>
	</g>
	<g id="Layer">
		<g id="Layer">
			<g id="Layer">
				<path id="Layer" class="s0" d="m148.1 30c-1.1 0.8-2.1 1.6-3.1 2.4-3.4 2.6-6.9 5.1-10.8 7.6-4 2.5-7.3 3.9-10.4 3.9-2 0-3.1-0.6-3.7-1.7-0.8-1-1.1-3-1.1-5.8 0.2-1.7 0-3.3-0.1-5.1-0.3-1.6-1-3-2.1-4.2-1-1.2-2.9-1.8-5.4-1.8-3.7 0-7.8 1.5-12.1 4.4-4.3 3.1-8.7 6.7-13.1 10.9 0.7-2.8 1.5-5.6 2.2-8.2 0.4-1.6 0.9-3 1.2-4.1 0.3-1.4 0-2.3-0.8-2.7-0.8-0.4-1.9-0.4-2.9 0q-1.6 0.7-2.2 2.7-0.7 1.9-1.3 4.4c-0.8 2.6-1.4 5.3-2.1 7.9-0.7 2.7-1 4.7-1.2 6.4-0.1 1.9 0.5 2.9 1.8 3.4 1.2 0.4 2.8-0.2 4.7-2q6.6-6.4 13.3-11.9c4.2-3.5 7.9-5.3 10.9-5.3q2 0 2.6 1.3c0.5 1.1 0.6 2.8 0.6 5.5-0.1 1.6 0 3.4 0.3 5.1 0.3 1.9 1 3.4 2.4 4.7 1.3 1.4 3.3 2 6.4 2 4.2 0 8.4-1.5 13-4.3q6.9-4.2 12.8-8.8c1.1-0.8 1.9-1.5 3-2.3 1.2-1 1.7-1.9 1.7-2.9-0.1-1-0.5-1.6-1.4-2.1-0.9-0.4-1.9-0.1-3.1 0.6z"/>
			</g>
		</g>
	</g>
	<g id="Layer">
		<g id="Layer">
			<g id="Layer">
				<path id="Layer" class="s0" d="m192.9 27.8q2.8 1.1 5.3 2c-5.2 2.1-10.3 4.2-15.4 6.5q-0.7 0.4-0.8 0.9c-0.1 0.4 0 0.7 0.2 0.9 0.3 0.3 0.6 0.3 1 0.1q9-4 17.8-7.3c0.5-0.2 0.8-0.6 1-1 0-0.3 0.1-0.4 0-0.6 0-0.1-0.1-0.3-0.4-0.5q-0.3-0.2-1.2-0.6-0.9-0.3-2.4-0.9c-1-0.4-2.3-0.9-4-1.5l-1.3-0.5c-1.4-0.5-2.6-0.9-3.7-1.3-1.1-0.4-1.8-0.8-2-1q-0.5-0.4-1.1-0.1c-0.3 0.2-0.6 0.4-0.8 0.8q-0.3 0.4 0 1c0.2 0.1 0.4 0.3 0.9 0.5 0.4 0.2 1.2 0.5 2.3 0.9q1.6 0.7 4.6 1.7z"/>
			</g>
		</g>
	</g>
	<g id="Layer">
		<g id="Layer">
			<g id="Layer">
				<path id="Layer" class="s0" d="m192.2 27.8q2.9 1.1 5.4 2c-5.3 2.1-10.4 4.2-15.4 6.5q-0.7 0.4-0.9 0.9c0 0.4 0 0.7 0.2 0.9 0.3 0.3 0.6 0.3 1.1 0.1q8.9-4 17.8-7.3c0.5-0.2 0.8-0.6 0.9-1 0.1-0.3 0.1-0.4 0.1-0.6-0.1-0.1-0.2-0.3-0.4-0.5q-0.4-0.2-1.2-0.6-0.9-0.3-2.4-0.9c-1.1-0.4-2.3-0.9-4-1.5l-1.4-0.5c-1.3-0.5-2.5-0.9-3.6-1.3-1.1-0.4-1.8-0.8-2.1-1q-0.5-0.4-1-0.1c-0.4 0.2-0.6 0.4-0.8 0.8q-0.3 0.4 0 1c0.1 0.1 0.4 0.3 0.8 0.5 0.5 0.2 1.2 0.5 2.3 0.9q1.6 0.7 4.6 1.7z"/>
			</g>
		</g>
	</g>
	<g id="Layer">
		<g id="Layer">
			<g id="Layer">
				<path id="Layer" class="s0" d="m191.8 29.3q2.9 1 5.3 2c-5.2 2-10.3 4.1-15.3 6.4q-0.7 0.4-0.9 1c-0.1 0.3 0 0.6 0.2 0.8 0.3 0.3 0.6 0.3 1.1 0.1q8.9-4 17.7-7.3c0.5-0.2 0.8-0.5 1-1 0-0.2 0.1-0.4 0-0.6 0-0.1-0.1-0.3-0.4-0.5q-0.3-0.2-1.2-0.5-0.8-0.4-2.4-1c-1-0.4-2.3-0.9-3.9-1.5l-1.4-0.5c-1.4-0.4-2.5-0.9-3.7-1.3-1.1-0.4-1.7-0.8-2-1q-0.5-0.4-1.1-0.1c-0.3 0.2-0.6 0.4-0.8 0.8q-0.3 0.5 0.1 1c0.1 0.1 0.3 0.3 0.8 0.5 0.5 0.2 1.2 0.5 2.3 0.9q1.6 0.7 4.6 1.8z"/>
			</g>
		</g>
	</g>
	<g id="Layer">
		<g id="Layer">
			<g id="Layer">
				<path id="Layer" class="s0" d="m194.2 29.3q2.9 1 5.3 2c-5.2 2-10.3 4.1-15.3 6.4q-0.7 0.4-0.9 1c-0.1 0.3 0 0.6 0.2 0.8 0.3 0.3 0.6 0.3 1.1 0.1q8.9-4 17.7-7.3c0.5-0.2 0.8-0.5 1-1 0-0.2 0.1-0.4 0-0.6 0-0.1-0.1-0.3-0.4-0.5q-0.3-0.2-1.2-0.5-0.8-0.4-2.4-1c-1-0.4-2.3-0.9-3.9-1.5l-1.4-0.5c-1.4-0.4-2.5-0.9-3.7-1.3-1.1-0.4-1.7-0.8-2-1q-0.5-0.4-1.1-0.1c-0.3 0.2-0.6 0.4-0.8 0.8q-0.3 0.5 0.1 1c0.1 0.1 0.3 0.3 0.8 0.5 0.5 0.2 1.2 0.5 2.3 0.9q1.6 0.7 4.6 1.8z"/>
			</g>
		</g>
	</g>
	<g id="Layer">
		<g id="Layer">
			<g id="Layer">
				<path id="Layer" class="s0" d="m194.2 27.8q2.9 1.1 5.3 2c-5.2 2.1-10.3 4.2-15.3 6.5q-0.7 0.4-0.9 0.9c-0.1 0.4 0 0.7 0.2 0.9 0.3 0.3 0.6 0.3 1.1 0.1q8.9-4 17.7-7.3c0.5-0.2 0.8-0.6 1-1 0-0.3 0.1-0.4 0-0.6 0-0.1-0.1-0.3-0.4-0.5q-0.3-0.2-1.2-0.6-0.8-0.3-2.4-0.9c-1-0.4-2.3-0.9-3.9-1.5l-1.4-0.5c-1.4-0.5-2.5-0.9-3.7-1.3-1.1-0.4-1.7-0.8-2-1q-0.5-0.4-1.1-0.1c-0.3 0.2-0.6 0.4-0.8 0.8q-0.3 0.4 0.1 1c0.1 0.1 0.3 0.3 0.8 0.5 0.5 0.2 1.2 0.5 2.3 0.9q1.6 0.7 4.6 1.7z"/>
			</g>
		</g>
	</g>
	<g id="Layer">
		<g id="Layer">
			<g id="Layer">
				<path id="Layer" class="s0" d="m194.4 29.3q2.8 1.1 5.3 2c-5.2 2.1-10.3 4.2-15.4 6.5q-0.7 0.4-0.8 0.9c-0.1 0.4 0 0.7 0.2 0.9 0.3 0.3 0.6 0.3 1 0.1q9-4 17.8-7.3c0.5-0.2 0.8-0.6 1-1 0-0.3 0.1-0.4 0-0.6 0-0.1-0.1-0.3-0.4-0.5q-0.3-0.2-1.2-0.6-0.9-0.3-2.4-0.9c-1-0.4-2.3-0.9-4-1.5l-1.3-0.5c-1.4-0.5-2.6-0.9-3.7-1.3-1.1-0.4-1.8-0.8-2-1q-0.5-0.4-1.1-0.1c-0.3 0.2-0.6 0.4-0.8 0.8q-0.3 0.4 0 1c0.2 0.1 0.4 0.3 0.9 0.5 0.4 0.2 1.2 0.5 2.3 0.9q1.6 0.7 4.6 1.7z"/>
			</g>
		</g>
	</g>
	<g id="Layer">
		<g id="Layer">
			<g id="Layer">
				<path id="Layer" class="s0" d="m193.7 29.3q2.9 1.1 5.4 2c-5.3 2.1-10.4 4.2-15.4 6.5q-0.7 0.4-0.9 0.9c0 0.4 0 0.7 0.2 0.9 0.3 0.3 0.6 0.3 1.1 0.1q8.9-4 17.8-7.3c0.5-0.2 0.8-0.6 0.9-1 0.1-0.3 0.1-0.4 0.1-0.6-0.1-0.1-0.2-0.3-0.4-0.5q-0.4-0.2-1.2-0.6-0.9-0.3-2.4-0.9c-1.1-0.4-2.3-0.9-4-1.5l-1.4-0.5c-1.3-0.5-2.5-0.9-3.6-1.3-1.1-0.4-1.8-0.8-2.1-1q-0.5-0.4-1-0.1c-0.4 0.2-0.6 0.4-0.8 0.8q-0.3 0.4 0 1c0.1 0.1 0.4 0.3 0.8 0.5 0.5 0.2 1.2 0.5 2.3 0.9q1.6 0.7 4.6 1.7z"/>
			</g>
		</g>
	</g>
	<g id="Layer">
		<g id="Layer">
			<g id="Layer">
				<path id="Layer" class="s0" d="m193.3 30.8q2.9 1 5.3 2c-5.2 2-10.3 4.1-15.3 6.4q-0.7 0.4-0.9 1c-0.1 0.3 0 0.6 0.2 0.8 0.3 0.3 0.6 0.3 1.1 0.1q8.9-4 17.7-7.3c0.5-0.2 0.8-0.5 1-1 0-0.2 0.1-0.4 0-0.6 0-0.1-0.1-0.3-0.4-0.5q-0.3-0.2-1.2-0.5-0.8-0.4-2.4-1c-1-0.4-2.3-0.9-3.9-1.5l-1.4-0.5c-1.4-0.4-2.5-0.9-3.7-1.3-1.1-0.4-1.7-0.8-2-1q-0.5-0.4-1.1-0.1c-0.3 0.2-0.6 0.4-0.8 0.8q-0.3 0.5 0.1 1c0.1 0.1 0.3 0.3 0.8 0.5 0.5 0.2 1.2 0.5 2.3 0.9q1.6 0.7 4.6 1.8z"/>
			</g>
		</g>
	</g>
	<g id="Layer">
		<g id="Layer">
			<g id="Layer">
				<path id="Layer" class="s0" d="m195.7 30.8q2.9 1 5.3 2c-5.2 2-10.3 4.1-15.3 6.4q-0.7 0.4-0.9 1c-0.1 0.3 0 0.6 0.2 0.8 0.3 0.3 0.6 0.3 1.1 0.1q8.9-4 17.7-7.3c0.5-0.2 0.8-0.5 1-1 0-0.2 0.1-0.4 0-0.6 0-0.1-0.1-0.3-0.4-0.5q-0.3-0.2-1.2-0.5-0.8-0.4-2.4-1c-1-0.4-2.3-0.9-3.9-1.5l-1.4-0.5c-1.4-0.4-2.5-0.9-3.7-1.3-1.1-0.4-1.7-0.8-2-1q-0.5-0.4-1.1-0.1c-0.3 0.2-0.6 0.4-0.8 0.8q-0.3 0.5 0.1 1c0.1 0.1 0.3 0.3 0.8 0.5 0.5 0.2 1.2 0.5 2.3 0.9q1.6 0.7 4.6 1.8z"/>
			</g>
		</g>
	</g>
	<g id="Layer">
		<g id="Layer">
			<g id="Layer">
				<path id="Layer" class="s0" d="m195.7 29.3q2.9 1.1 5.3 2c-5.2 2.1-10.3 4.2-15.3 6.5q-0.7 0.4-0.9 0.9c-0.1 0.4 0 0.7 0.2 0.9 0.3 0.3 0.6 0.3 1.1 0.1q8.9-4 17.7-7.3c0.5-0.2 0.8-0.6 1-1 0-0.3 0.1-0.4 0-0.6 0-0.1-0.1-0.3-0.4-0.5q-0.3-0.2-1.2-0.6-0.8-0.3-2.4-0.9c-1-0.4-2.3-0.9-3.9-1.5l-1.4-0.5c-1.4-0.5-2.5-0.9-3.7-1.3-1.1-0.4-1.7-0.8-2-1q-0.5-0.4-1.1-0.1c-0.3 0.2-0.6 0.4-0.8 0.8q-0.3 0.4 0.1 1c0.1 0.1 0.3 0.3 0.8 0.5 0.5 0.2 1.2 0.5 2.3 0.9q1.6 0.7 4.6 1.7z"/>
			</g>
		</g>
	</g>
	<g id="Layer">
		<g id="Layer">
			<g id="Layer">
				<path id="Layer" class="s0" d="m159.5 58.5q2.5-4.9 7.4-15.3 5-10.4 9.9-20.8 4.9-10.4 7.2-15.4c0.1-0.2 0.1-0.4-0.1-0.5q-0.2-0.3-0.6-0.2c-0.3 0.1-0.5 0.3-0.6 0.5q-2.1 4.8-7 15.1c-3.3 6.8-6.6 13.7-9.9 20.7-3.4 6.9-6 12.1-7.8 15.5q-0.4 0.7-0.1 0.9 0.4 0.2 0.8 0.2c0.3 0 0.6-0.2 0.8-0.7z"/>
			</g>
		</g>
	</g>
	<g id="Layer">
		<g id="Layer">
			<g id="Layer">
				<path id="Layer" class="s0" d="m158.8 58.5q2.4-4.9 7.4-15.3 4.9-10.4 9.8-20.8 4.9-10.4 7.2-15.4c0.2-0.2 0.1-0.4 0-0.5q-0.3-0.3-0.7-0.2c-0.2 0.1-0.4 0.3-0.5 0.5q-2.2 4.8-7.1 15.1c-3.2 6.8-6.5 13.7-9.9 20.7-3.3 6.9-5.9 12.1-7.8 15.5q-0.4 0.7 0 0.9 0.3 0.2 0.8 0.2c0.3 0 0.6-0.2 0.8-0.7z"/>
			</g>
		</g>
	</g>
	<g id="Layer">
		<g id="Layer">
			<g id="Layer">
				<path id="Layer" class="s0" d="m158 58.5q2.5-4.9 7.4-15.3 5-10.4 9.9-20.8 4.9-10.4 7.2-15.4c0.1-0.2 0.1-0.4-0.1-0.5q-0.2-0.3-0.6-0.2c-0.3 0.1-0.5 0.3-0.6 0.5q-2.1 4.8-7 15.1c-3.3 6.8-6.6 13.7-9.9 20.7-3.4 6.9-6 12.1-7.8 15.5q-0.4 0.7-0.1 0.9 0.4 0.2 0.8 0.2c0.3 0 0.6-0.2 0.8-0.7z"/>
			</g>
		</g>
	</g>
	<g id="Layer">
		<g id="Layer">
			<g id="Layer">
				<path id="Layer" class="s0" d="m159.5 57.8q2.5-4.9 7.4-15.3 5-10.4 9.9-20.8 4.9-10.4 7.2-15.4c0.1-0.2 0.1-0.4-0.1-0.6q-0.2-0.2-0.6-0.1c-0.3 0-0.5 0.2-0.6 0.4q-2.1 4.8-7 15.1c-3.3 6.9-6.6 13.8-9.9 20.7-3.4 7-6 12.1-7.8 15.5q-0.4 0.7-0.1 1 0.4 0.2 0.8 0.2c0.3-0.1 0.6-0.3 0.8-0.7z"/>
			</g>
		</g>
	</g>
	<g id="Layer">
		<g id="Layer">
			<g id="Layer">
				<path id="Layer" class="s0" d="m158 57.8q2.5-4.9 7.4-15.3 5-10.4 9.9-20.8 4.9-10.4 7.2-15.4c0.1-0.2 0.1-0.4-0.1-0.6q-0.2-0.2-0.6-0.1c-0.3 0-0.5 0.2-0.6 0.4q-2.1 4.8-7 15.1c-3.3 6.9-6.6 13.8-9.9 20.7-3.4 7-6 12.1-7.8 15.5q-0.4 0.7-0.1 1 0.4 0.2 0.8 0.2c0.3-0.1 0.6-0.3 0.8-0.7z"/>
			</g>
		</g>
	</g>
	<g id="Layer">
		<g id="Layer">
			<g id="Layer">
				<path id="Layer" class="s0" d="m158 59.3q2.5-4.9 7.4-15.3 5-10.4 9.9-20.8 4.9-10.4 7.2-15.4c0.1-0.2 0.1-0.4-0.1-0.6q-0.2-0.2-0.6-0.1c-0.3 0-0.5 0.2-0.6 0.4q-2.1 4.8-7 15.1c-3.3 6.9-6.6 13.8-9.9 20.7-3.4 7-6 12.1-7.8 15.5q-0.4 0.7-0.1 1 0.4 0.2 0.8 0.2c0.3-0.1 0.6-0.3 0.8-0.7z"/>
			</g>
		</g>
	</g>
	<g id="Layer">
		<g id="Layer">
			<g id="Layer">
				<path id="Layer" class="s0" d="m158.8 59.3q2.4-4.9 7.4-15.3 4.9-10.4 9.8-20.8 4.9-10.4 7.2-15.4c0.2-0.2 0.1-0.4 0-0.6q-0.3-0.2-0.7-0.1c-0.2 0-0.4 0.2-0.5 0.4q-2.2 4.8-7.1 15.1c-3.2 6.9-6.5 13.8-9.9 20.7-3.3 7-5.9 12.1-7.8 15.5q-0.4 0.7 0 1 0.3 0.2 0.8 0.2c0.3-0.1 0.6-0.3 0.8-0.7z"/>
			</g>
		</g>
	</g>
	<g id="Layer">
		<g id="Layer">
			<g id="Layer">
				<path id="Layer" class="s0" d="m161.8 57q2.4-4.9 7.4-15.3 4.9-10.4 9.8-20.8 4.9-10.4 7.2-15.4c0.2-0.2 0.1-0.4 0-0.5q-0.3-0.3-0.7-0.2c-0.2 0.1-0.4 0.3-0.5 0.5q-2.2 4.8-7.1 15.1c-3.2 6.8-6.5 13.7-9.9 20.7-3.3 6.9-5.9 12.1-7.8 15.5q-0.4 0.7 0 0.9 0.3 0.2 0.8 0.2c0.3 0 0.6-0.2 0.8-0.7z"/>
			</g>
		</g>
	</g>
	<g id="Layer">
		<g id="Layer">
			<g id="Layer">
				<path id="Layer" class="s0" d="m161 57q2.5-4.9 7.4-15.3 5-10.4 9.9-20.8 4.9-10.4 7.2-15.4c0.1-0.2 0.1-0.4-0.1-0.5q-0.2-0.3-0.6-0.2c-0.3 0.1-0.5 0.3-0.6 0.5q-2.1 4.8-7 15.1c-3.3 6.8-6.6 13.7-9.9 20.7-3.4 6.9-6 12.1-7.8 15.5q-0.4 0.7-0.1 0.9 0.4 0.2 0.8 0.2c0.3 0 0.6-0.2 0.8-0.7z"/>
			</g>
		</g>
	</g>
	<g id="Layer">
		<g id="Layer">
			<g id="Layer">
				<path id="Layer" class="s0" d="m160.3 57q2.4-4.9 7.4-15.3 4.9-10.4 9.8-20.8 4.9-10.4 7.2-15.4c0.2-0.2 0.1-0.4 0-0.5q-0.3-0.3-0.7-0.2c-0.2 0.1-0.4 0.3-0.5 0.5q-2.2 4.8-7.1 15.1c-3.2 6.8-6.5 13.7-9.9 20.7-3.3 6.9-5.9 12.1-7.8 15.5q-0.4 0.7 0 0.9 0.3 0.2 0.8 0.2c0.3 0 0.6-0.2 0.8-0.7z"/>
			</g>
		</g>
	</g>
	<g id="Layer">
		<g id="Layer">
			<g id="Layer">
				<path id="Layer" class="s0" d="m161.8 56.3q2.4-4.9 7.4-15.3 4.9-10.4 9.8-20.8 4.9-10.4 7.2-15.4c0.2-0.2 0.1-0.4 0-0.6q-0.3-0.2-0.7-0.1c-0.2 0-0.4 0.2-0.5 0.4q-2.2 4.8-7.1 15.1c-3.2 6.9-6.5 13.8-9.9 20.7-3.3 7-5.9 12.1-7.8 15.5q-0.4 0.7 0 1 0.3 0.2 0.8 0.2c0.3-0.1 0.6-0.3 0.8-0.7z"/>
			</g>
		</g>
	</g>
	<g id="Layer">
		<g id="Layer">
			<g id="Layer">
				<path id="Layer" class="s0" d="m160.3 56.3q2.4-4.9 7.4-15.3 4.9-10.4 9.8-20.8 4.9-10.4 7.2-15.4c0.2-0.2 0.1-0.4 0-0.6q-0.3-0.2-0.7-0.1c-0.2 0-0.4 0.2-0.5 0.4q-2.2 4.8-7.1 15.1c-3.2 6.9-6.5 13.8-9.9 20.7-3.3 7-5.9 12.1-7.8 15.5q-0.4 0.7 0 1 0.3 0.2 0.8 0.2c0.3-0.1 0.6-0.3 0.8-0.7z"/>
			</g>
		</g>
	</g>
	<g id="Layer">
		<g id="Layer">
			<g id="Layer">
				<path id="Layer" class="s0" d="m160.3 57.8q2.4-4.9 7.4-15.3 4.9-10.4 9.8-20.8 4.9-10.4 7.2-15.4c0.2-0.2 0.1-0.4 0-0.6q-0.3-0.2-0.7-0.1c-0.2 0-0.4 0.2-0.5 0.4q-2.2 4.8-7.1 15.1c-3.2 6.9-6.5 13.8-9.9 20.7-3.3 7-5.9 12.1-7.8 15.5q-0.4 0.7 0 1 0.3 0.2 0.8 0.2c0.3-0.1 0.6-0.3 0.8-0.7z"/>
			</g>
		</g>
	</g>
	<g id="Layer">
		<g id="Layer">
			<g id="Layer">
				<path id="Layer" class="s0" d="m161 57.8q2.5-4.9 7.4-15.3 5-10.4 9.9-20.8 4.9-10.4 7.2-15.4c0.1-0.2 0.1-0.4-0.1-0.6q-0.2-0.2-0.6-0.1c-0.3 0-0.5 0.2-0.6 0.4q-2.1 4.8-7 15.1c-3.3 6.9-6.6 13.8-9.9 20.7-3.4 7-6 12.1-7.8 15.5q-0.4 0.7-0.1 1 0.4 0.2 0.8 0.2c0.3-0.1 0.6-0.3 0.8-0.7z"/>
			</g>
		</g>
	</g>
	<g id="Layer">
		<g id="Layer">
			<g id="Layer">
				<path id="Layer" class="s0" d="m19.6 40.3q-3-0.9-5.5-1.7c5.1-2.4 10.1-4.7 15-7.3q0.6-0.5 0.8-1c0-0.4 0-0.7-0.3-0.9-0.3-0.2-0.6-0.2-1 0q-8.7 4.5-17.3 8.3c-0.5 0.2-0.8 0.6-0.9 1.1-0.1 0.2-0.1 0.4 0 0.6 0 0.1 0.1 0.3 0.4 0.4q0.3 0.3 1.2 0.6 0.9 0.3 2.5 0.8c1 0.3 2.3 0.7 4 1.2l1.4 0.4c1.4 0.4 2.6 0.8 3.7 1.1 1.2 0.4 1.9 0.7 2.1 0.9q0.6 0.3 1.1 0c0.4-0.2 0.6-0.4 0.8-0.8q0.2-0.5-0.1-1c-0.1-0.1-0.4-0.3-0.9-0.5-0.5-0.2-1.2-0.4-2.3-0.8q-1.7-0.5-4.7-1.4z"/>
			</g>
		</g>
	</g>
	<g id="Layer">
		<g id="Layer">
			<g id="Layer">
				<path id="Layer" class="s0" d="m20.2 40.3q-2.9-0.9-5.4-1.7c5.1-2.4 10-4.8 14.9-7.3q0.7-0.5 0.8-1.1c0.1-0.3 0-0.6-0.2-0.8-0.3-0.3-0.6-0.3-1.1 0q-8.7 4.5-17.3 8.3c-0.5 0.2-0.8 0.6-0.9 1.1 0 0.2-0.1 0.4 0 0.5 0 0.2 0.2 0.4 0.4 0.5q0.4 0.2 1.2 0.5 1 0.3 2.5 0.8c1.1 0.4 2.4 0.8 4.1 1.3l1.4 0.4c1.3 0.4 2.5 0.7 3.7 1.1 1.1 0.3 1.8 0.6 2.1 0.8q0.5 0.4 1 0.1c0.4-0.2 0.6-0.4 0.8-0.8q0.3-0.5-0.1-1c-0.1-0.2-0.4-0.3-0.8-0.5-0.5-0.2-1.3-0.4-2.4-0.8q-1.6-0.6-4.7-1.4z"/>
			</g>
		</g>
	</g>
	<g id="Layer">
		<g id="Layer">
			<g id="Layer">
				<path id="Layer" class="s0" d="m20.6 38.8q-3-0.9-5.5-1.7c5.1-2.3 10.1-4.7 15-7.3q0.6-0.4 0.8-1c0-0.4-0.1-0.6-0.3-0.9-0.3-0.2-0.6-0.2-1.1 0q-8.6 4.5-17.2 8.4c-0.5 0.2-0.8 0.6-0.9 1-0.1 0.3-0.1 0.4 0 0.6 0 0.1 0.1 0.3 0.4 0.5q0.3 0.2 1.2 0.5 0.9 0.3 2.5 0.8c1 0.3 2.3 0.7 4 1.2l1.4 0.4c1.4 0.4 2.6 0.8 3.7 1.1 1.2 0.4 1.9 0.7 2.1 0.9q0.6 0.3 1.1 0c0.3-0.2 0.6-0.4 0.8-0.8q0.2-0.5-0.1-1c-0.2-0.1-0.4-0.3-0.9-0.5-0.5-0.1-1.2-0.4-2.3-0.7q-1.7-0.6-4.7-1.5z"/>
			</g>
		</g>
	</g>
	<g id="Layer">
		<g id="Layer">
			<g id="Layer">
				<path id="Layer" class="s0" d="m18.2 39q-3-0.9-5.5-1.7c5.1-2.4 10.1-4.8 15-7.3q0.6-0.5 0.8-1.1c0-0.3 0-0.6-0.3-0.8-0.3-0.3-0.6-0.2-1 0q-8.7 4.5-17.3 8.3c-0.5 0.2-0.8 0.6-0.9 1.1-0.1 0.2-0.1 0.4 0 0.5 0 0.2 0.1 0.4 0.4 0.5q0.3 0.2 1.2 0.5 0.9 0.3 2.5 0.8c1 0.4 2.3 0.8 4 1.3l1.4 0.4c1.4 0.4 2.6 0.7 3.7 1.1 1.2 0.3 1.9 0.6 2.1 0.8q0.6 0.4 1.1 0.1c0.4-0.2 0.6-0.4 0.8-0.8q0.2-0.5-0.1-1c-0.1-0.2-0.4-0.3-0.9-0.5-0.5-0.2-1.2-0.4-2.3-0.8q-1.7-0.6-4.7-1.4z"/>
			</g>
		</g>
	</g>
	<g id="Layer">
		<g id="Layer">
			<g id="Layer">
				<path id="Layer" class="s0" d="m18.3 40.4q-3-0.9-5.5-1.7c5.1-2.4 10.1-4.8 14.9-7.3q0.7-0.5 0.8-1.1c0.1-0.3 0-0.6-0.2-0.8-0.3-0.3-0.6-0.2-1.1 0q-8.6 4.5-17.2 8.3c-0.6 0.2-0.8 0.6-0.9 1.1-0.1 0.2-0.1 0.4 0 0.5 0 0.2 0.1 0.4 0.4 0.5q0.3 0.2 1.2 0.5 0.9 0.4 2.5 0.9c1 0.3 2.3 0.7 4 1.2l1.4 0.4c1.4 0.4 2.6 0.7 3.7 1.1 1.2 0.4 1.8 0.7 2.1 0.8q0.6 0.4 1.1 0.1c0.3-0.2 0.6-0.4 0.8-0.8q0.2-0.5-0.1-1c-0.2-0.2-0.4-0.3-0.9-0.5-0.5-0.2-1.2-0.4-2.3-0.8q-1.7-0.5-4.7-1.4z"/>
			</g>
		</g>
	</g>
	<g id="Layer">
		<g id="Layer">
			<g id="Layer">
				<path id="Layer" class="s0" d="m18 38.9q-2.9-0.9-5.5-1.7c5.1-2.4 10.1-4.8 15-7.3q0.7-0.5 0.8-1c0-0.4 0-0.7-0.3-0.9-0.3-0.3-0.6-0.2-1 0q-8.7 4.5-17.3 8.3c-0.5 0.2-0.8 0.6-0.9 1.1 0 0.2-0.1 0.4 0 0.6 0 0.1 0.1 0.3 0.4 0.4q0.3 0.2 1.2 0.6 0.9 0.3 2.5 0.8c1 0.3 2.3 0.7 4 1.2l1.4 0.4c1.4 0.4 2.6 0.7 3.8 1.1 1.1 0.4 1.8 0.7 2.1 0.9q0.5 0.3 1 0c0.4-0.2 0.6-0.4 0.8-0.8q0.3-0.5-0.1-1c-0.1-0.1-0.4-0.3-0.9-0.5-0.5-0.2-1.2-0.4-2.3-0.8q-1.7-0.5-4.7-1.4z"/>
			</g>
		</g>
	</g>
	<g id="Layer">
		<g id="Layer">
			<g id="Layer">
				<path id="Layer" class="s0" d="m18.6 38.9q-2.9-1-5.4-1.7c5.1-2.4 10-4.8 14.9-7.3q0.7-0.5 0.8-1.1c0.1-0.4 0-0.6-0.2-0.9-0.3-0.2-0.6-0.2-1.1 0q-8.7 4.6-17.3 8.4c-0.5 0.2-0.8 0.6-0.9 1.1 0 0.2 0 0.4 0 0.5 0 0.2 0.2 0.4 0.4 0.5q0.4 0.2 1.3 0.5 0.9 0.3 2.4 0.8c1.1 0.3 2.4 0.7 4.1 1.3l1.4 0.4c1.3 0.3 2.5 0.7 3.7 1.1 1.1 0.3 1.8 0.6 2.1 0.8q0.5 0.4 1.1 0.1c0.3-0.2 0.6-0.5 0.7-0.8q0.3-0.5-0.1-1c-0.1-0.2-0.4-0.3-0.8-0.5-0.5-0.2-1.3-0.4-2.4-0.8q-1.6-0.6-4.7-1.4z"/>
			</g>
		</g>
	</g>
	<g id="Layer">
		<g id="Layer">
			<g id="Layer">
				<path id="Layer" class="s0" d="m19 37.4q-3-0.9-5.5-1.7c5.1-2.3 10.1-4.7 15-7.3q0.6-0.5 0.8-1c0-0.4 0-0.7-0.3-0.9-0.3-0.2-0.6-0.2-1 0q-8.7 4.5-17.3 8.3c-0.5 0.3-0.8 0.7-0.9 1.1-0.1 0.3-0.1 0.4 0 0.6 0 0.1 0.1 0.3 0.4 0.5q0.3 0.2 1.2 0.5 0.9 0.3 2.5 0.8c1 0.3 2.3 0.7 4 1.2l1.4 0.4c1.4 0.4 2.6 0.8 3.7 1.1 1.2 0.4 1.9 0.7 2.1 0.9q0.6 0.3 1.1 0c0.4-0.2 0.6-0.4 0.8-0.8q0.2-0.5-0.1-1c-0.1-0.1-0.4-0.3-0.9-0.5-0.5-0.1-1.2-0.4-2.3-0.8q-1.7-0.5-4.7-1.4z"/>
			</g>
		</g>
	</g>
	<g id="Layer">
		<g id="Layer">
			<g id="Layer">
				<path id="Layer" class="s0" d="m16.6 37.6q-3-1-5.5-1.7c5.1-2.4 10.1-4.8 15-7.3q0.7-0.5 0.8-1.1c0-0.4 0-0.6-0.3-0.9-0.3-0.2-0.6-0.2-1 0q-8.7 4.6-17.3 8.4c-0.5 0.2-0.8 0.6-0.9 1.1 0 0.2-0.1 0.4 0 0.5 0 0.2 0.1 0.4 0.4 0.5q0.3 0.2 1.2 0.5 0.9 0.3 2.5 0.8c1 0.4 2.3 0.8 4 1.3l1.4 0.4c1.4 0.4 2.6 0.7 3.8 1.1 1.1 0.3 1.8 0.6 2.1 0.8q0.5 0.4 1 0.1c0.4-0.2 0.6-0.5 0.8-0.8q0.3-0.5-0.1-1c-0.1-0.2-0.4-0.3-0.9-0.5-0.5-0.2-1.2-0.4-2.3-0.8q-1.7-0.6-4.7-1.4z"/>
			</g>
		</g>
	</g>
</svg>